/* XPM */
static char *freeimage[] = {
/* columns rows colors chars-per-pixel */
"32 32 123 2 ",
"   c #00002E",
".  c #000036",
"X  c #00003C",
"o  c #000046",
"O  c #00014C",
"+  c #001349",
"@  c #081B4F",
"#  c #000552",
"$  c #000C54",
"%  c #000458",
"&  c #000D59",
"*  c #011156",
"=  c #01135A",
"-  c #03195E",
";  c #151E59",
":  c #172A59",
">  c #1B2E5B",
",  c #041C61",
"<  c #0A1E62",
"1  c #0C2264",
"2  c #0F2568",
"3  c #112666",
"4  c #1A2767",
"5  c #172865",
"6  c #112669",
"7  c #162B6A",
"8  c #192E6C",
"9  c #1D316D",
"0  c #0F2670",
"q  c #112B73",
"w  c #1E3571",
"e  c #233561",
"r  c #273A64",
"t  c #21326F",
"y  c #2C346D",
"u  c #32376E",
"i  c #223571",
"p  c #273973",
"a  c #2A3D75",
"s  c #2A3F78",
"d  c #2D4273",
"f  c #2D4079",
"g  c #334274",
"h  c #35457B",
"j  c #39477D",
"k  c #3E4E7E",
"l  c #3C4D82",
"z  c #465789",
"x  c #4E5D8D",
"c  c #535F8C",
"v  c #505D90",
"b  c #586684",
"n  c #556491",
"m  c #586695",
"M  c #5C6A95",
"N  c #5F709A",
"B  c #616C93",
"V  c #626D98",
"C  c #65759E",
"Z  c #6C7BA3",
"A  c #008EBB",
"S  c #7C84A3",
"D  c #7B85A9",
"F  c #008EC6",
"G  c #008DCA",
"H  c #0094CA",
"J  c #009ACE",
"K  c #0DA2C6",
"L  c #00A4C9",
"P  c #01A4D2",
"I  c #09A2D0",
"U  c #2CAFD6",
"Y  c #27B0D3",
"T  c #2DB1D3",
"R  c #35B4D4",
"E  c #48BEDA",
"W  c #46BFE3",
"Q  c #45C1DC",
"!  c #6DC7DA",
"~  c #70CCDE",
"^  c #73CCE4",
"/  c #808EAF",
"(  c #8590B0",
")  c #8E96B5",
"_  c #8F99B6",
"`  c #969EBA",
"'  c #97A0BC",
"]  c #9BA4BF",
"[  c #AAAFB4",
"{  c #9CA6C0",
"}  c #A3ABC4",
"|  c #A9AEC6",
" . c #ADB5CA",
".. c #B4BBCE",
"X. c #BEC4D5",
"o. c #BCC6DF",
"O. c #89D2E8",
"+. c #A0DDEC",
"@. c #A8E0ED",
"#. c #C0C5D6",
"$. c #C4C9D9",
"%. c #C9CEDC",
"&. c #CCD0DE",
"*. c #C4D4E1",
"=. c #D2D6E2",
"-. c #DCDFE9",
";. c #DDE0EA",
":. c #D2F1EF",
">. c #C6EAF2",
",. c #D9F1F6",
"<. c #E0E4EC",
"1. c #EBE4EB",
"2. c #E6E8EE",
"3. c #E9EAEF",
"4. c #F0F0ED",
"5. c #E6ECF2",
"6. c #EBECF1",
"7. c #E3F4F7",
"8. c #E1F3F8",
"9. c #F3F4F7",
"0. c #F6F7F9",
"q. c #FFFFFF",
"w. c None",
/* pixels */
"w.w.w.w.w.w.w.w.w.w.w.w.w.w.w.h d w.w.w.w.w.w.w.w.w.w.w.w.w.w.w.",
"w.w.w.w.w.w.w.w.w.w.w.w.w.x $ = , , g w.w.w.w.w.w.w.w.w.w.w.w.w.",
"w.w.w.w.w.w.w.w.w.w.w.x = # 3 8 7 7 , < h w.w.w.w.w.w.w.w.w.w.w.",
"w.w.w.w.w.w.w.w.w.l o X O $ , 7 7 7 8 2 = 1 k w.w.w.w.w.w.w.w.w.",
"w.w.w.w.w.w.w.2.] )  .| ( n 9 = 7 7 7 7 8 3 & 1 p w.w.w.w.w.w.w.",
"w.w.w.w.w.q.q.q.q.q.q.q.q.q.6.` - 6 7 7 7 7 7 3 , , k w.w.w.w.w.",
"w.w.w.q.q.q.q.q.q.q.q.q.q.q.q. .O 7 7 7 7 7 7 7 8 2 - 2 a w.w.w.",
"w.! 7.q.q.q.q.q.q.q.q.q.q.q.q.i - 7 7 7 7 7 7 7 7 7 7 2 - 2 l w.",
"L O.q.q.q.q.q.&.n j l V { 9.} O 8 7 7 7 7 7 7 7 7 7 7 7 7 2 & 9 ",
"~ q.q.q.q.q.$.O o = = O O p i 1 8 7 7 7 7 7 7 7 7 7 7 7 7 7 7 3 ",
":.q.q.q.q.q.f O 9 7 7 8 7 * * 2 < 1 1 7 7 7 7 7 8 7 , < < 1 < 1 ",
"q.q.q.q.q.&.* 3 7 7 7 6 w p 3 6 3 2 1 , 8 7 7 8 5 - 3 7 3 3 3 y ",
"q.q.q.q.q.} # 7 7 7 7 1 3 %.2.-.;.;.=.i $ 8 7 9 O Z -.-.;.;.1.%.",
"q.q.q.q.q.] $ 7 7 7 7 7 # m q.q.q.q.q.X.# 1 8 $ t q.q.q.q.q.q.Q ",
"q.q.q.q.q. .# 5 7 7 7 7 7 o / q.q.q.q.q.Z o 2 o $.q.q.q.q.q.W A ",
"3.q.q.q.q.;.- < 7 7 7 7 8 1 O $.q.q.q.q.q.i . C q.q.q.q.q.+.H K ",
"[ q.q.q.q.q.N X 1 7 7 7 , $ X 3 q.q.q.q.q. .; 9.q.q.q.q.7.H H R ",
"b q.q.q.q.q.0.c * # # * 8 m { = z q.q.q.q.q.5.q.q.q.q.q.U H J R ",
"+ o.q.q.q.q.q.q.&.| | #.6.q.q.a . ] q.q.q.q.q.q.q.q.q.^ F P J R ",
"@ 6 6.q.q.q.q.q.q.q.q.q.q.q.q.f # = %.q.q.q.q.q.q.q.>.H J P J R ",
"r % 8 #.q.q.q.q.q.q.q.q.q.q.q.s - O a q.q.q.q.q.q.8.J J P P J R ",
"e q $ & M ..3.q.q.q.q.q.6.#.D 7 1 O ' q.q.q.q.q.q.7.I H P P J R ",
"> 0 8 3 # * 8 l n m x l 8 = O 7 o Z q.q.q.q.q.q.q.q.,.H J P J U ",
": % 1 8 7 7 - = $ # $ = , 3 w # a q.q.q.q.q.q.q.q.q.q.@.F J G Y ",
"w.Z - # < 8 4 7 7 7 7 7 7 8 , = <.q.q.q.q.6._ q.q.q.q.q.^ F E w.",
"w.w.w.V , # 1 8 7 7 7 7 7 7 o { q.q.q.q.q.C   ..q.q.q.q.q.w.w.w.",
"w.w.w.w.w.m = % 3 8 7 7 8 o N q.q.q.q.q.X.O = < ;.q.q.w.w.w.w.w.",
"w.w.w.w.w.w.w.c = & 2 9 $ 9 q.q.q.q.q.0.3 $ , o S w.w.w.w.w.w.w.",
"w.w.w.w.w.w.w.w.w.l = O 4 q.q.q.q.q.q.x . , h w.w.w.w.w.w.w.w.w.",
"w.w.w.w.w.w.w.w.w.w.w.u l ] { } } { m o l w.w.w.w.w.w.w.w.w.w.w.",
"w.w.w.w.w.w.w.w.w.w.w.w.w.5 o o O X 9 w.w.w.w.w.w.w.w.w.w.w.w.w.",
"w.w.w.w.w.w.w.w.w.w.w.w.w.w.w.p s w.w.w.w.w.w.w.w.w.w.w.w.w.w.w."
};
