/* XPM */
static char *freeimage[] = {
/* columns rows colors chars-per-pixel */
"64 64 170 2 ",
"   c #000030",
".  c #00003B",
"X  c #02163D",
"o  c #000046",
"O  c #00024C",
"+  c #071A40",
"@  c #000651",
"#  c #000B54",
"$  c #000458",
"%  c #000F59",
"&  c #001157",
"*  c #01145B",
"=  c #02195D",
"-  c #0B1D5E",
";  c #0E215F",
":  c #2E3D59",
">  c #283854",
",  c #001760",
"<  c #051B61",
"1  c #0A1E61",
"2  c #0D2364",
"3  c #0E246B",
"4  c #112666",
"5  c #142965",
"6  c #182867",
"7  c #112668",
"8  c #162B6A",
"9  c #192E6C",
"0  c #1A316C",
"q  c #0E2570",
"w  c #0D2872",
"e  c #1E3370",
"r  c #212F6D",
"t  c #2B396E",
"y  c #233671",
"u  c #263873",
"i  c #2A3A74",
"p  c #2C3F78",
"a  c #31405B",
"s  c #2F426C",
"d  c #384760",
"f  c #2D4077",
"g  c #2E4179",
"h  c #324677",
"j  c #33447C",
"k  c #3D4D7A",
"l  c #3C4A74",
"z  c #414C78",
"x  c #46547D",
"c  c #737B7E",
"v  c #3B4D81",
"b  c #3F5183",
"n  c #0076B8",
"m  c #414D82",
"M  c #435384",
"N  c #4B5A84",
"B  c #465789",
"V  c #485789",
"C  c #4B598B",
"Z  c #485888",
"A  c #4C5890",
"S  c #445A94",
"D  c #55638B",
"F  c #586689",
"G  c #4F6192",
"H  c #546492",
"J  c #5C6A95",
"K  c #5D6B99",
"L  c #636F9A",
"P  c #64739C",
"I  c #69769E",
"U  c #69789D",
"Y  c #6E7BA1",
"T  c #6672A0",
"R  c #717CA2",
"E  c #0090BE",
"W  c #1DA3BC",
"Q  c #7582A6",
"!  c #7683AA",
"~  c #7D87A9",
"^  c #7D8AAC",
"/  c #7C86A5",
"(  c #0085C3",
")  c #008EC6",
"_  c #008DC8",
"`  c #0091C7",
"'  c #0095CB",
"]  c #009BCE",
"[  c #0A9DCA",
"{  c #009AD4",
"}  c #00A1CA",
"|  c #0CA3CC",
" . c #01A3D1",
".. c #00A5D9",
"X. c #09A3D2",
"o. c #27A9CF",
"O. c #34AFC5",
"+. c #24ADD2",
"@. c #2EAFD3",
"#. c #29B7D3",
"$. c #3FB6D9",
"%. c #3AB8D2",
"&. c #58BDCD",
"*. c #4BBCDA",
"=. c #41B6D5",
"-. c #59BFD3",
";. c #45C6D9",
":. c #5DC5DC",
">. c #5CC1D5",
",. c #63C4D7",
"<. c #65C5DC",
"1. c #6BC8DA",
"2. c #78CAD8",
"3. c #7FD3DF",
"4. c #71CCE3",
"5. c #61D0E4",
"6. c #7FD0E7",
"7. c #828DAE",
"8. c #888EAD",
"9. c #8893AE",
"0. c #8693B2",
"q. c #8B95B3",
"w. c #8C99BB",
"e. c #939CB8",
"r. c #97A0BB",
"t. c #9CA6BF",
"y. c #A5ABBB",
"u. c #B5B6B3",
"i. c #9EA8C2",
"p. c #A6AEC6",
"a. c #A1AACE",
"s. c #A8B0C6",
"d. c #ABB3C9",
"f. c #B3BBCD",
"g. c #B8BFCD",
"h. c #B8BFD1",
"j. c #80D6DB",
"k. c #BDC3D4",
"l. c #81D3E6",
"z. c #95D5E6",
"x. c #99DAEA",
"c. c #A6DDEC",
"v. c #AEE0EC",
"b. c #B8E6E9",
"n. c #C7CCDB",
"m. c #C9CEDC",
"M. c #C2C7D5",
"N. c #CDD2DE",
"B. c #D2D3DF",
"V. c #E2D4DA",
"C. c #CDD3E0",
"Z. c #D2D6E2",
"A. c #D5D9E3",
"S. c #D9DDE6",
"D. c #DBDEE8",
"F. c #C1E7EF",
"G. c #DDE1E9",
"H. c #D7EFF4",
"J. c #DEF1F3",
"K. c #E1E4EB",
"L. c #E9E9EB",
"P. c #EAEDF1",
"I. c #EBF5F7",
"U. c #EDF7F9",
"Y. c #E6F4F6",
"T. c #F3F3F5",
"R. c #F5F6F9",
"E. c #F6FAFA",
"W. c #FEFEFE",
"Q. c None",
/* pixels */
"Q.Q.Q.Q.Q.Q.Q.Q.Q.Q.Q.Q.Q.Q.Q.Q.Q.Q.Q.Q.Q.Q.Q.Q.Q.Q.Q.Q.Q.Q.Q.j s Q.Q.Q.Q.Q.Q.Q.Q.Q.Q.Q.Q.Q.Q.Q.Q.Q.Q.Q.Q.Q.Q.Q.Q.Q.Q.Q.Q.Q.Q.Q.",
"Q.Q.Q.Q.Q.Q.Q.Q.Q.Q.Q.Q.Q.Q.Q.Q.Q.Q.Q.Q.Q.Q.Q.Q.Q.Q.Q.Q.Q.J * * = 2 N Q.Q.Q.Q.Q.Q.Q.Q.Q.Q.Q.Q.Q.Q.Q.Q.Q.Q.Q.Q.Q.Q.Q.Q.Q.Q.Q.Q.Q.",
"Q.Q.Q.Q.Q.Q.Q.Q.Q.Q.Q.Q.Q.Q.Q.Q.Q.Q.Q.Q.Q.Q.Q.Q.Q.Q.Q.K * @ 4 9 8 2 * 4 x Q.Q.Q.Q.Q.Q.Q.Q.Q.Q.Q.Q.Q.Q.Q.Q.Q.Q.Q.Q.Q.Q.Q.Q.Q.Q.Q.",
"Q.Q.Q.Q.Q.Q.Q.Q.Q.Q.Q.Q.Q.Q.Q.Q.Q.Q.Q.Q.Q.Q.Q.Q.Q.K = O 2 9 8 8 8 8 9 2 , 4 z Q.Q.Q.Q.Q.Q.Q.Q.Q.Q.Q.Q.Q.Q.Q.Q.Q.Q.Q.Q.Q.Q.Q.Q.Q.",
"Q.Q.Q.Q.Q.Q.Q.Q.Q.Q.Q.Q.Q.Q.Q.Q.Q.Q.Q.Q.Q.Q.Q.P = O 2 9 8 8 8 8 8 8 8 8 8 7 = 4 N Q.Q.Q.Q.Q.Q.Q.Q.Q.Q.Q.Q.Q.Q.Q.Q.Q.Q.Q.Q.Q.Q.Q.",
"Q.Q.Q.Q.Q.Q.Q.Q.Q.Q.Q.Q.Q.Q.Q.Q.Q.Q.Q.Q.Q.I = O 2 9 8 8 8 8 8 8 8 8 8 8 8 8 9 2 * 4 x Q.Q.Q.Q.Q.Q.Q.Q.Q.Q.Q.Q.Q.Q.Q.Q.Q.Q.Q.Q.Q.",
"Q.Q.Q.Q.Q.Q.Q.Q.Q.Q.Q.Q.Q.Q.Q.Q.Q.Q.Q.I = O 2 9 8 8 8 8 8 8 8 8 8 8 8 8 8 8 8 8 9 2 * 4 k Q.Q.Q.Q.Q.Q.Q.Q.Q.Q.Q.Q.Q.Q.Q.Q.Q.Q.Q.",
"Q.Q.Q.Q.Q.Q.Q.Q.Q.Q.Q.Q.Q.Q.Q.Q.Q.C o   O # # # = 1 7 8 8 8 8 8 8 8 8 8 8 8 8 8 8 8 9 2 * = F Q.Q.Q.Q.Q.Q.Q.Q.Q.Q.Q.Q.Q.Q.Q.Q.Q.",
"Q.Q.Q.Q.Q.Q.Q.Q.Q.Q.Q.Q.Q.Q.Q.y.Z v I ^ Q Y K Z p 4 & O % 2 9 8 8 8 8 8 8 8 8 8 8 8 8 8 8 3 = 2 M Q.Q.Q.Q.Q.Q.Q.Q.Q.Q.Q.Q.Q.Q.Q.",
"Q.Q.Q.Q.Q.Q.Q.Q.Q.Q.Q.Q.Q.W.R.L.W.W.W.W.W.W.W.W.E.K.f.Y k 2 O = 9 8 8 8 8 8 8 8 8 8 8 8 8 8 8 2 < 2 N Q.Q.Q.Q.Q.Q.Q.Q.Q.Q.Q.Q.Q.",
"Q.Q.Q.Q.Q.Q.Q.Q.Q.Q.Q.W.W.W.W.W.W.W.W.W.W.W.W.W.W.W.W.W.W.A.7.j 1 8 8 8 8 8 8 8 8 8 8 8 8 8 8 8 8 4 < & k Q.Q.Q.Q.Q.Q.Q.Q.Q.Q.Q.",
"Q.Q.Q.Q.Q.Q.Q.Q.Q.W.W.W.W.W.W.W.W.W.W.W.W.W.W.W.W.W.W.W.W.W.W.d.O 8 8 8 8 8 8 8 8 8 8 8 8 8 8 8 8 8 8 3 = 8 D Q.Q.Q.Q.Q.Q.Q.Q.Q.",
"Q.Q.Q.Q.Q.Q.Q.W.W.W.W.W.W.W.W.W.W.W.W.W.W.W.W.W.W.W.W.W.W.W.W.Z # 9 8 8 8 8 8 8 8 8 8 8 8 8 8 6 8 8 8 8 9 2 * 2 D Q.Q.Q.Q.Q.Q.Q.",
"Q.Q.Q.Q.Q.W.W.W.W.W.W.W.W.W.W.W.W.W.W.W.W.W.W.W.W.W.W.W.W.W.M.# 7 9 8 8 8 8 8 8 8 8 8 8 8 8 8 8 8 8 8 8 8 8 9 3 = 9 h Q.Q.Q.Q.Q.",
"Q.Q.Q.&.b.W.W.W.W.W.W.W.W.W.W.W.W.W.W.W.W.W.W.W.W.W.W.W.W.W.J O 9 8 8 8 8 8 8 8 8 8 8 8 8 8 8 8 8 8 8 8 8 8 8 8 8 2 < 8 H Q.Q.Q.",
"Q.j.E <.W.W.W.W.W.W.E.W.W.W.W.W.W.W.W.W.W.W.W.W.W.W.W.W.W.S.= 2 8 8 8 8 8 8 8 8 8 8 8 8 8 8 8 8 8 8 8 8 8 8 8 8 8 8 9 2 # 8 Q.Q.",
":.n #.W.W.W.W.W.W.W.W.W.W.W.W.W.m.~ J J L R e.Z.W.W.W.W.W.I O 9 8 8 8 8 8 8 8 8 8 8 8 8 8 8 8 8 8 8 8 8 8 8 8 8 8 8 8 8 8 2 $ x ",
";.( J.W.W.W.W.W.W.W.W.W.W.W.K.M & O @ # @ O O 1 p L h.W.W.4 < 8 8 8 8 8 8 8 8 8 8 8 8 8 8 8 8 8 8 8 8 8 8 8 8 8 8 8 8 8 8 8 8 2 ",
"#.+.W.W.W.W.W.W.W.W.W.W.W.S.- O 2 9 8 8 8 9 8 2 * O & M M = 9 8 8 8 8 8 8 8 8 8 8 8 8 8 8 8 8 8 8 8 8 8 8 8 8 8 8 8 8 8 9 5 8 9 ",
"%.z.W.W.W.W.W.W.W.W.W.W.W.y O 0 8 8 8 8 8 8 8 9 8 8 8 & & 9 9 8 8 8 8 8 8 8 8 8 8 8 8 8 8 8 8 8 8 8 8 8 8 8 8 8 8 8 8 8 8 9 5 0 ",
"j.P.W.W.W.W.W.W.W.W.W.W.0.o 8 8 8 8 8 8 8 8 8 8 8 8 8 8 8 8 8 8 8 8 8 8 8 8 8 8 8 8 8 8 8 8 8 8 8 8 8 8 8 8 8 8 8 8 8 8 8 8 8 0 ",
"b.W.W.W.W.W.E.W.W.W.W.R.8 = 9 8 8 8 8 8 8 8 8 8 8 8 8 8 8 8 8 8 8 8 8 8 8 8 8 8 8 8 8 8 8 8 8 8 8 8 8 8 8 8 8 9 8 8 8 8 8 8 6 0 ",
"U.W.W.W.W.W.W.W.W.W.W.k.# 8 8 8 8 8 8 8 8 8 8 8 8 8 4 2 4 7 2 7 4 2 4 4 4 4 8 8 8 8 8 8 8 8 8 8 8 8 8 5 4 2 4 2 7 4 2 7 2 4 4 5 ",
"Q.W.W.W.W.W.W.W.W.W.W.0.O 8 8 8 8 8 8 8 8 8 8 8 8 0 2 = = = = = = = = = = * 2 9 8 8 8 8 8 8 8 8 8 9 8 * = = = = = = = = = = * 5 ",
"Q.W.W.W.W.W.W.W.W.W.W.H # 8 8 8 8 8 8 8 8 8 8 8 < p Z.m.n.n.n.n.n.n.n.n.n.p.= 2 8 8 8 8 8 8 8 8 8 9 @ 7.n.n.n.n.n.n.n.n.n.n.B.V.",
"Q.W.W.W.W.W.W.W.W.W.W.M # 8 8 8 8 8 8 8 8 8 8 8 7 # d.W.W.W.W.W.W.W.W.W.W.W.~ o 9 8 8 8 8 8 8 8 9 @ j W.W.W.W.W.W.W.W.W.W.W.W.l.",
"Q.W.W.W.W.W.W.W.W.W.W.M & 8 8 8 8 8 8 8 8 8 8 8 9 2 @ N.W.W.W.W.W.W.W.W.W.W.W.g # 0 8 8 8 8 8 9 1 # D.W.W.W.W.E.W.W.W.W.W.W.=.| ",
"Q.W.W.W.W.W.W.W.W.W.W.M # 8 8 8 8 8 8 8 8 8 8 8 8 0 # 6 R.W.W.W.W.W.W.W.W.W.W.Z.O 2 8 8 8 8 8 9 O ^ W.W.W.W.W.W.W.W.W.W.W.v._ O.",
"Q.W.W.W.W.W.W.W.W.W.W.C # 8 8 8 8 8 8 8 8 8 8 8 8 8 9 O D W.W.W.W.W.W.W.W.W.W.W.! O 9 8 8 8 9 # u W.W.W.W.W.W.W.W.W.W.W.U.[ { W ",
"Q.W.W.W.W.W.W.W.W.W.W.Q @ 8 8 8 8 8 8 8 8 8 8 8 8 8 8 8 o i.W.W.E.W.W.W.W.W.W.W.W.y # 9 8 9 4 O N.W.W.W.W.W.W.W.W.W.W.W.=._ ..W ",
"Q.W.W.W.W.W.W.W.W.W.W.s.@ 8 8 8 8 8 8 8 8 8 8 8 8 8 8 8 - # D.W.W.W.W.W.W.W.W.W.W.C.O 2 8 9 O I W.W.W.W.W.W.W.W.W.W.W.z.`  ...W ",
"u.W.W.W.W.W.E.W.W.W.W.K.= 2 8 8 8 8 8 8 8 6 8 8 8 8 8 8 9 @ i W.W.W.W.W.W.W.W.W.W.W.~ O 9 * 4 E.W.W.W.W.W.W.W.W.W.W.H.' ]  ...W ",
"c W.W.W.W.W.W.W.W.W.W.W.J O 9 8 8 8 8 8 8 8 8 8 8 8 8 8 8 9 o Q W.W.W.W.W.W.W.W.W.W.W.i @ O f.W.W.W.W.W.W.W.W.W.W.W.o.`  . .] -.",
"d R.W.W.W.W.W.W.W.W.W.W.G.# * 0 8 8 8 8 8 8 8 8 8 8 9 9 = # - O h.W.W.W.W.W.W.W.W.W.W.B.  C W.W.W.W.W.W.W.W.W.W.W.,.) .. . .' 1.",
"X a.W.W.W.W.W.W.W.W.W.W.W.f.# O 4 9 8 8 8 8 9 9 2 = O O y P g # 1 P.W.W.W.W.W.W.W.W.W.W.9.Z.W.W.W.W.W.W.W.W.W.W.b.`  . . . .' ,.",
"+ S W.W.W.E.W.W.W.W.W.W.W.W.N.m # O O # # @ O O * j L t.T.W.v * O m W.W.W.W.W.W.W.W.W.W.W.W.W.W.W.W.W.W.W.W.W.E.X.'  . . . .' ,.",
"> $ n.W.W.W.W.W.W.W.W.W.W.W.W.W.k.8.U L K P ~ e.M.W.W.W.W.W.j * 8 o 0.W.W.W.W.W.W.W.W.W.W.W.W.W.W.W.W.W.W.W.W.*._  . . . . .' ,.",
"a $ j W.W.W.W.W.W.W.W.W.W.W.W.W.W.W.W.W.W.W.W.W.W.W.W.W.W.W.j = 8 2 O N.W.W.W.W.W.W.W.W.W.W.W.W.W.W.W.W.W.W.c.`  . . . . . .' ,.",
": w O U W.W.W.W.W.W.W.W.W.W.W.W.W.W.W.W.W.W.W.W.W.W.W.W.W.W.j * 8 0 # 6 R.W.E.W.W.W.W.W.W.W.W.W.W.W.W.W.W.I.' ]  . . . . . .' ,.",
": q 4 O q.W.W.W.W.E.W.W.W.W.W.W.W.W.W.W.W.W.W.W.W.W.W.W.W.W.j * 8 8 9 O H W.W.W.W.E.W.W.W.W.W.W.W.E.W.W.W.@.'  . . . . . . .' ,.",
": q 9 2 O Y W.W.W.W.W.W.W.W.W.W.W.W.W.W.W.W.W.W.W.W.W.W.W.W.j = 8 8 8 8 O 7.W.W.W.W.W.W.W.W.W.W.W.W.W.W.4.)  . . . . . . . .' <.",
": q 8 9 4 O m Z.W.W.W.W.W.W.W.W.W.W.W.W.W.W.W.W.W.W.W.W.W.W.v # 8 8 8 0 o p W.W.W.W.W.W.W.W.W.W.W.W.W.c.)  . . . . . . . . .' ,.",
": q 8 8 9 8 @ = R Z.W.W.W.W.W.W.W.W.W.W.W.W.W.W.W.W.W.W.E.M.r 1 8 8 9 = - A.W.W.W.W.W.W.W.W.W.W.W.W.W.v.` ]  . . . . . . . .' ,.",
": q 8 8 8 8 9 1 @ = Z i.B.T.W.W.W.W.W.W.W.W.W.W.R.Z.d.U y & 2 9 8 8 4 O s.W.W.W.W.W.W.W.E.W.W.W.W.W.W.W.x._  . . . .}  . . .' ,.",
": q 8 8 8 8 8 8 9 2 # O < y v J / q.e.e.8.Y K v y 2 # O = 7 8 8 8 9 O I W.W.W.W.W.W.W.W.W.W.W.W.W.W.W.W.W.:._  . . . . . . .' ,.",
": 3 8 8 8 8 8 8 8 8 8 8 2 = & # @ @ O O @ @ # & = 2 7 8 8 8 8 8 9 @ i W.W.W.W.W.E.W.W.W.W.W.W.W.W.W.W.W.W.W.+.`  . . . . . .' ,.",
"> 3 9 8 8 8 8 8 8 8 8 8 9 8 8 8 8 8 8 8 8 8 8 8 8 8 8 8 8 8 8 9 = # S.W.W.W.W.W.W.W.W.W.W.W.W.W.W.W.W.W.W.W.Y.[ ]  . . . . .' >.",
": $ = 9 8 8 8 8 8 8 8 8 8 8 8 8 8 8 8 8 8 8 8 8 8 8 8 8 8 8 8 4 O p.W.W.W.W.W.W.W.W.W.W.W.W.W.W.W.W.W.W.W.W.W.F.' ]  . . .] ( <.",
"Q.w.7 @ < 9 8 8 8 8 8 8 8 8 8 8 8 8 8 8 8 8 8 8 8 8 8 8 8 8 9 O L W.W.W.W.W.W.W.W.W.W.W.f.T.W.W.E.W.W.W.W.W.W.W.l.)  .] ` X.2.Q.",
"Q.Q.Q./ 4 O < 9 8 8 8 8 8 8 8 8 8 8 8 8 8 8 8 8 8 8 8 8 8 0 # i W.W.W.W.W.W.W.W.W.W.W.G.. U W.W.W.W.W.W.W.W.W.W.W.*.( } 5.Q.Q.Q.",
"Q.Q.Q.Q.Q.! 7 @ 1 9 8 8 8 8 8 8 8 8 8 8 8 8 8 8 8 8 8 8 8 1 # C.W.W.W.W.W.W.E.W.W.W.W.g O # M.W.W.W.W.W.W.W.W.W.W.E.Q.Q.Q.Q.Q.Q.",
"Q.Q.Q.Q.Q.Q.Q.R 1 O 1 9 8 8 8 8 8 8 8 8 8 8 8 8 8 8 8 8 8 o e.W.W.W.W.W.W.W.W.W.W.W.Q O 0 # 4 E.W.W.W.W.W.W.W.W.Q.Q.Q.Q.Q.Q.Q.Q.",
"Q.Q.Q.Q.Q.Q.Q.Q.Q.R 1 @ 1 9 9 8 8 8 8 8 8 8 8 8 8 8 9 9 O C W.W.W.W.W.W.W.W.W.W.W.n.O 2 8 9 O H W.W.W.W.W.W.Q.Q.Q.Q.Q.Q.Q.Q.Q.Q.",
"Q.Q.Q.Q.Q.Q.Q.Q.Q.Q.Q.I 1 @ 1 9 8 8 8 8 8 8 8 8 8 8 0 # 8 E.W.W.W.W.W.W.W.W.W.W.E.8 # 9 8 9 4 O s.W.W.W.Q.Q.Q.Q.Q.Q.Q.Q.Q.Q.Q.Q.",
"Q.Q.Q.Q.Q.Q.Q.Q.Q.Q.Q.Q.Q.H , $ 2 9 8 8 8 8 8 8 8 9 1 @ n.W.W.W.W.W.W.W.W.W.W.W.J O 0 8 8 8 9 * @ A.Q.Q.Q.Q.Q.Q.Q.Q.Q.Q.Q.Q.Q.Q.",
"Q.Q.Q.Q.Q.Q.Q.Q.Q.Q.Q.Q.Q.Q.Q.H = # 2 8 8 8 8 8 8 8 o 0.W.W.W.W.W.W.W.E.W.W.W.f.O 7 9 8 8 3 < 8 t Q.Q.Q.Q.Q.Q.Q.Q.Q.Q.Q.Q.Q.Q.Q.",
"Q.Q.Q.Q.Q.Q.Q.Q.Q.Q.Q.Q.Q.Q.Q.Q.Q.H ; % 2 9 8 8 9 O Z W.W.W.W.W.W.W.W.W.W.W.P.- = 9 9 2 % 2 x Q.Q.Q.Q.Q.Q.Q.Q.Q.Q.Q.Q.Q.Q.Q.Q.Q.",
"Q.Q.Q.Q.Q.Q.Q.Q.Q.Q.Q.Q.Q.Q.Q.Q.Q.Q.Q.M = * 4 9 * r W.W.W.W.W.W.W.W.W.W.W.W.M O 0 2 , 7 C Q.Q.Q.Q.Q.Q.Q.Q.Q.Q.Q.Q.Q.Q.Q.Q.Q.Q.Q.",
"Q.Q.Q.Q.Q.Q.Q.Q.Q.Q.Q.Q.Q.Q.Q.Q.Q.Q.Q.Q.Q.j = # & S.W.W.W.W.W.W.W.W.W.W.W.0.O 8 # = 9 Q.Q.Q.Q.Q.Q.Q.Q.Q.Q.Q.Q.Q.Q.Q.Q.Q.Q.Q.Q.Q.",
"Q.Q.Q.Q.Q.Q.Q.Q.Q.Q.Q.Q.Q.Q.Q.Q.Q.Q.Q.Q.Q.Q.Q.C 8 k b M M Z C Z V C Z C V < @ # G Q.Q.Q.Q.Q.Q.Q.Q.Q.Q.Q.Q.Q.Q.Q.Q.Q.Q.Q.Q.Q.Q.Q.",
"Q.Q.Q.Q.Q.Q.Q.Q.Q.Q.Q.Q.Q.Q.Q.Q.Q.Q.Q.Q.Q.Q.Q.Q.Q.i O O * # # # % # * # O * F Q.Q.Q.Q.Q.Q.Q.Q.Q.Q.Q.Q.Q.Q.Q.Q.Q.Q.Q.Q.Q.Q.Q.Q.Q.",
"Q.Q.Q.Q.Q.Q.Q.Q.Q.Q.Q.Q.Q.Q.Q.Q.Q.Q.Q.Q.Q.Q.Q.Q.Q.Q.Q.v 1 = 3 9 9 2 * 7 l Q.Q.Q.Q.Q.Q.Q.Q.Q.Q.Q.Q.Q.Q.Q.Q.Q.Q.Q.Q.Q.Q.Q.Q.Q.Q.Q.",
"Q.Q.Q.Q.Q.Q.Q.Q.Q.Q.Q.Q.Q.Q.Q.Q.Q.Q.Q.Q.Q.Q.Q.Q.Q.Q.Q.Q.Q.M - = 2 9 u Q.Q.Q.Q.Q.Q.Q.Q.Q.Q.Q.Q.Q.Q.Q.Q.Q.Q.Q.Q.Q.Q.Q.Q.Q.Q.Q.Q.Q.",
"Q.Q.Q.Q.Q.Q.Q.Q.Q.Q.Q.Q.Q.Q.Q.Q.Q.Q.Q.Q.Q.Q.Q.Q.Q.Q.Q.Q.Q.Q.Q.h 5 Q.Q.Q.Q.Q.Q.Q.Q.Q.Q.Q.Q.Q.Q.Q.Q.Q.Q.Q.Q.Q.Q.Q.Q.Q.Q.Q.Q.Q.Q.Q."
};
