/* XPM */
static char *freeimage[] = {
/* columns rows colors chars-per-pixel */
"16 16 150 2 ",
"   c #00002D",
".  c #000039",
"X  c #00003D",
"o  c #00003F",
"O  c #000041",
"+  c #000043",
"@  c #000047",
"#  c #000048",
"$  c #00004A",
"%  c #00074A",
"&  c #00034C",
"*  c #00044E",
"=  c #000750",
"-  c #000751",
";  c #000653",
":  c #000A53",
">  c #000B53",
",  c #020E50",
"<  c #000B55",
"1  c #000D54",
"2  c #000E56",
"3  c #000F56",
"4  c #000F57",
"5  c #000F5A",
"6  c #031158",
"7  c #001259",
"8  c #001359",
"9  c #00125B",
"0  c #00145A",
"q  c #00145C",
"w  c #02195D",
"e  c #011B5F",
"r  c #041B5E",
"t  c #091C5F",
"y  c #0B215C",
"u  c #071960",
"i  c #051A60",
"p  c #061C60",
"a  c #061D60",
"s  c #081E60",
"d  c #081F63",
"f  c #0A1F62",
"g  c #092163",
"h  c #0D2364",
"j  c #0F2566",
"k  c #102264",
"l  c #102566",
"z  c #102666",
"x  c #112767",
"c  c #192667",
"v  c #1A2D65",
"b  c #122868",
"n  c #142A69",
"m  c #152A69",
"M  c #172C6B",
"N  c #162D6B",
"B  c #162D6C",
"V  c #172D6C",
"C  c #182D6B",
"Z  c #192D6C",
"A  c #192E6C",
"S  c #1F326C",
"D  c #1D3470",
"F  c #263069",
"G  c #27326F",
"H  c #2A3169",
"J  c #2D336E",
"K  c #203470",
"L  c #283A74",
"P  c #283C76",
"I  c #2D3D76",
"U  c #2F417A",
"Y  c #33457C",
"T  c #35467D",
"R  c #3E4D7A",
"E  c #394880",
"W  c #384A80",
"Q  c #414F88",
"!  c #425281",
"~  c #435382",
"^  c #445581",
"/  c #45538A",
"(  c #495788",
")  c #47598A",
"_  c #4B5C8C",
"`  c #546496",
"'  c #586795",
"]  c #5E6F99",
"[  c #61709A",
"{  c #68729C",
"}  c #6D7CA4",
"|  c #7480A5",
" . c #7582A6",
".. c #7A85A9",
"X. c #0087C4",
"o. c #008BC6",
"O. c #008FC9",
"+. c #0097C8",
"@. c #009DCD",
"#. c #00A0CE",
"$. c #17ABD3",
"%. c #1CABD3",
"&. c #25B6D8",
"*. c #34B5DB",
"=. c #7ED5EA",
"-. c #8793B3",
";. c #929EBB",
":. c #9CA5BF",
">. c #A6AEC5",
",. c #ACB3CA",
"<. c #B0B7CD",
"1. c #B5BCCF",
"2. c #B9BDD0",
"3. c #B8BDD4",
"4. c #BDC3D5",
"5. c #BCC6D6",
"6. c #86D4E3",
"7. c #84D1E7",
"8. c #9BD9EB",
"9. c #B2D4E1",
"0. c #C1C6D6",
"q. c #C1C8D8",
"w. c #CDD0D6",
"e. c #CFD3DF",
"r. c #CAD2E1",
"t. c #D3D7E3",
"y. c #DADCE4",
"u. c #D9DCE6",
"i. c #D9DDE6",
"p. c #DEDEE7",
"a. c #DEE1EA",
"s. c #E0E3EB",
"d. c #E4E5EC",
"f. c #E6E9EF",
"g. c #E8EAF0",
"h. c #EAECF1",
"j. c #F8EFF2",
"k. c #EDF8F9",
"l. c #F0F1F5",
"z. c #F6F7F9",
"x. c #F5FBFB",
"c. c #F2FAFC",
"v. c #F8F9FA",
"b. c #FAFAFB",
"n. c #F9FAFC",
"m. c #FAFCFD",
"M. c #FAFDFE",
"N. c #FDFEFF",
"B. c white",
"V. c None",
/* pixels */
"V.V.V.V.V.V.V.E S V.V.V.V.V.V.V.",
"V.V.V.V.V./ + O d i ^ V.V.V.V.V.",
"V.V.V.n.e.2.<...l j 9 5 ! V.V.V.",
"V.k.B.B.B.B.B.i.= x M m q q ~ V.",
"6.M.B.,.G T | U - z V C n a ; 8 ",
"x.B.h.s $ 3 w h D p k B r Z A J ",
"B.B.0.2 b 6 _ z.g.>.> @ [ f.j.9.",
"B.B.u.1 0 g O :.B.B.) * v.B.B.&.",
"w.B.B. .: t I K r.B.a.5.B.B.*.+.",
"R B.B.B.d.p.B.;., s.B.B.N.7.o.$.",
"% Q 4.b.B.B.l.{   1.B.B.c.@.O.%.",
"y o 3 P W Y N X } B.B.B.B.8.X.#.",
"V.' < @ 4 e # L B.B.q.-.B.B.=.V.",
"V.V.V.( 7 & c m.B.B.u . y.V.V.V.",
"V.V.V.V.V.H ] t.3.` F V.V.V.V.V.",
"V.V.V.V.V.V.V.f v V.V.V.V.V.V.V."
};
